<?xml version="1.0" encoding="UTF-8"?>
<!DOCTYPE svg PUBLIC "-//W3C//DTD SVG 1.1//EN" "http://www.w3.org/Graphics/SVG/1.1/DTD/svg11.dtd">
<!-- Creator: CorelDRAW (Versión de evaluación) -->
<svg xmlns="http://www.w3.org/2000/svg" xml:space="preserve" width="162.976mm" height="168.353mm" version="1.1" style="shape-rendering:geometricPrecision; text-rendering:geometricPrecision; image-rendering:optimizeQuality; fill-rule:evenodd; clip-rule:evenodd"
viewBox="0 0 1144.28 1182.03"
 xmlns:xlink="http://www.w3.org/1999/xlink"
 xmlns:xodm="http://www.corel.com/coreldraw/odm/2003">
 <defs>
  <style type="text/css">
   <![CDATA[
    .fil0 {fill:#0D1434}
   ]]>
  </style>
 </defs>
 <g id="Capa_x0020_1">
  <metadata id="CorelCorpID_0Corel-Layer"/>
  <path class="fil0" d="M459.56 222.96l0 0 0 0zm0 256.52l102.32 -50.77 146.4 294.37 -248.72 123.62 0 -367.22zm-430.1 -299.59l0.01 -0.03 349.81 -173.57c7.61,-4.02 5.76,-6.29 25.48,-6.29 19.71,0 54.71,24.51 54.71,54.71l-0.01 0.4 0.11 0.05 0 167.78 0 0.02 152.64 -75.73c7.69,-4.12 10.46,-6.46 25.81,-6.46 15.36,0 39.87,12.26 48.88,30.11l0.43 0.87 456.97 918.82 -216.87 0c-0.87,0.05 8.6,0.07 -2.6,0.07 -11.2,0 -40.15,-12.44 -49.08,-30.53l-66.3 -131.97 -498.72 247.22c-0.74,0.4 -1.5,0.8 -2.27,1.17 -7.23,3.52 -15.36,5.5 -23.97,5.51 -30.36,0.09 -54.7,-24.49 -54.7,-54.7l0 -0.02 0 -790.33 -229.78 114.01 0.07 -222.75c0.07,-20.33 11.34,-38.91 29.39,-48.35z"/>
 </g>
</svg>
